<mxfile host="app.diagrams.net" modified="2023-05-11T06:18:46.925Z" agent="Mozilla/5.0 (Macintosh; Intel Mac OS X 10_15_7) AppleWebKit/537.36 (KHTML, like Gecko) Chrome/112.0.0.0 Safari/537.36" etag="pXg9qQxWx682LGwywGyY" version="21.2.9" type="github">
  <diagram name="Page-1" id="74e2e168-ea6b-b213-b513-2b3c1d86103e">
    <mxGraphModel dx="1434" dy="621" grid="1" gridSize="10" guides="1" tooltips="1" connect="1" arrows="1" fold="1" page="1" pageScale="1" pageWidth="1100" pageHeight="850" background="none" math="0" shadow="0">
      <root>
        <mxCell id="0" />
        <mxCell id="1" parent="0" />
        <mxCell id="77e6c97f196da883-1" value="会议室预约" style="swimlane;html=1;childLayout=stackLayout;startSize=20;rounded=0;shadow=0;labelBackgroundColor=none;strokeWidth=1;fontFamily=Verdana;fontSize=8;align=center;" parent="1" vertex="1">
          <mxGeometry x="70" y="40" width="830" height="690" as="geometry" />
        </mxCell>
        <mxCell id="77e6c97f196da883-2" value="客户端" style="swimlane;html=1;startSize=20;" parent="77e6c97f196da883-1" vertex="1">
          <mxGeometry y="20" width="160" height="670" as="geometry" />
        </mxCell>
        <mxCell id="77e6c97f196da883-8" value="发起请求" style="rounded=1;whiteSpace=wrap;html=1;shadow=0;labelBackgroundColor=none;strokeWidth=1;fontFamily=Verdana;fontSize=8;align=center;" parent="77e6c97f196da883-2" vertex="1">
          <mxGeometry x="20" y="65" width="100" height="60" as="geometry" />
        </mxCell>
        <mxCell id="77e6c97f196da883-9" value="返回数据" style="rounded=1;whiteSpace=wrap;html=1;shadow=0;labelBackgroundColor=none;strokeWidth=1;fontFamily=Verdana;fontSize=8;align=center;" parent="77e6c97f196da883-2" vertex="1">
          <mxGeometry x="30" y="470" width="100" height="60" as="geometry" />
        </mxCell>
        <mxCell id="77e6c97f196da883-26" style="edgeStyle=orthogonalEdgeStyle;rounded=1;html=1;labelBackgroundColor=none;startArrow=none;startFill=0;startSize=5;endArrow=classicThin;endFill=1;endSize=5;jettySize=auto;orthogonalLoop=1;strokeWidth=1;fontFamily=Verdana;fontSize=8" parent="77e6c97f196da883-1" source="77e6c97f196da883-8" target="77e6c97f196da883-11" edge="1">
          <mxGeometry relative="1" as="geometry" />
        </mxCell>
        <mxCell id="77e6c97f196da883-3" value="服务端" style="swimlane;html=1;startSize=20;" parent="77e6c97f196da883-1" vertex="1">
          <mxGeometry x="160" y="20" width="160" height="670" as="geometry" />
        </mxCell>
        <mxCell id="6kmdfwkzF2_6ChwyTH_8-12" value="" style="edgeStyle=orthogonalEdgeStyle;rounded=0;orthogonalLoop=1;jettySize=auto;html=1;entryX=0.5;entryY=0;entryDx=0;entryDy=0;" edge="1" parent="77e6c97f196da883-3" source="77e6c97f196da883-11" target="6kmdfwkzF2_6ChwyTH_8-3">
          <mxGeometry relative="1" as="geometry" />
        </mxCell>
        <mxCell id="77e6c97f196da883-11" value="参数校验" style="rounded=1;whiteSpace=wrap;html=1;shadow=0;labelBackgroundColor=none;strokeWidth=1;fontFamily=Verdana;fontSize=8;align=center;" parent="77e6c97f196da883-3" vertex="1">
          <mxGeometry x="25" y="65" width="100" height="60" as="geometry" />
        </mxCell>
        <mxCell id="6kmdfwkzF2_6ChwyTH_8-13" value="" style="edgeStyle=orthogonalEdgeStyle;rounded=0;orthogonalLoop=1;jettySize=auto;html=1;" edge="1" parent="77e6c97f196da883-3" source="6kmdfwkzF2_6ChwyTH_8-3" target="6kmdfwkzF2_6ChwyTH_8-4">
          <mxGeometry relative="1" as="geometry" />
        </mxCell>
        <mxCell id="6kmdfwkzF2_6ChwyTH_8-3" value="生成入库记录" style="rounded=1;whiteSpace=wrap;html=1;shadow=0;labelBackgroundColor=none;strokeWidth=1;fontFamily=Verdana;fontSize=8;align=center;" vertex="1" parent="77e6c97f196da883-3">
          <mxGeometry x="25" y="150" width="100" height="60" as="geometry" />
        </mxCell>
        <mxCell id="6kmdfwkzF2_6ChwyTH_8-6" value="" style="edgeStyle=orthogonalEdgeStyle;rounded=0;orthogonalLoop=1;jettySize=auto;html=1;" edge="1" parent="77e6c97f196da883-3" source="6kmdfwkzF2_6ChwyTH_8-4" target="6kmdfwkzF2_6ChwyTH_8-5">
          <mxGeometry relative="1" as="geometry" />
        </mxCell>
        <mxCell id="6kmdfwkzF2_6ChwyTH_8-4" value="是否重复会议" style="rhombus;whiteSpace=wrap;html=1;rounded=0;shadow=0;labelBackgroundColor=none;strokeWidth=1;fontFamily=Verdana;fontSize=8;align=center;" vertex="1" parent="77e6c97f196da883-3">
          <mxGeometry x="20" y="240" width="110" height="70" as="geometry" />
        </mxCell>
        <mxCell id="6kmdfwkzF2_6ChwyTH_8-8" value="" style="edgeStyle=orthogonalEdgeStyle;rounded=0;orthogonalLoop=1;jettySize=auto;html=1;" edge="1" parent="77e6c97f196da883-3" source="6kmdfwkzF2_6ChwyTH_8-5" target="6kmdfwkzF2_6ChwyTH_8-7">
          <mxGeometry relative="1" as="geometry" />
        </mxCell>
        <mxCell id="6kmdfwkzF2_6ChwyTH_8-5" value="生成重复会议记录" style="whiteSpace=wrap;html=1;fontSize=8;fontFamily=Verdana;rounded=0;shadow=0;labelBackgroundColor=none;strokeWidth=1;" vertex="1" parent="77e6c97f196da883-3">
          <mxGeometry x="15" y="350" width="120" height="60" as="geometry" />
        </mxCell>
        <mxCell id="6kmdfwkzF2_6ChwyTH_8-7" value="插入重复预约记录" style="whiteSpace=wrap;html=1;fontSize=8;fontFamily=Verdana;rounded=0;shadow=0;labelBackgroundColor=none;strokeWidth=1;" vertex="1" parent="77e6c97f196da883-3">
          <mxGeometry x="15" y="470" width="120" height="60" as="geometry" />
        </mxCell>
        <mxCell id="77e6c97f196da883-4" value="kafka" style="swimlane;html=1;startSize=20;" parent="77e6c97f196da883-1" vertex="1">
          <mxGeometry x="320" y="20" width="160" height="670" as="geometry" />
        </mxCell>
        <mxCell id="77e6c97f196da883-12" value="请求的数据&lt;br&gt;and&lt;br&gt;生成的预约记录数据" style="rounded=1;whiteSpace=wrap;html=1;shadow=0;labelBackgroundColor=none;strokeWidth=1;fontFamily=Verdana;fontSize=8;align=center;" parent="77e6c97f196da883-4" vertex="1">
          <mxGeometry x="30" y="470" width="100" height="60" as="geometry" />
        </mxCell>
        <mxCell id="77e6c97f196da883-5" value="服务端" style="swimlane;html=1;startSize=20;" parent="77e6c97f196da883-1" vertex="1">
          <mxGeometry x="480" y="20" width="190" height="670" as="geometry" />
        </mxCell>
        <mxCell id="77e6c97f196da883-15" value="生成需要处理的用户列表（创建者+会议邀请列表）" style="rounded=1;whiteSpace=wrap;html=1;shadow=0;labelBackgroundColor=none;strokeWidth=1;fontFamily=Verdana;fontSize=8;align=center;" parent="77e6c97f196da883-5" vertex="1">
          <mxGeometry x="50" y="40" width="100" height="60" as="geometry" />
        </mxCell>
        <mxCell id="6kmdfwkzF2_6ChwyTH_8-30" style="edgeStyle=orthogonalEdgeStyle;rounded=0;orthogonalLoop=1;jettySize=auto;html=1;entryX=0.5;entryY=0;entryDx=0;entryDy=0;" edge="1" parent="77e6c97f196da883-5" source="77e6c97f196da883-16" target="6kmdfwkzF2_6ChwyTH_8-20">
          <mxGeometry relative="1" as="geometry">
            <Array as="points">
              <mxPoint x="170" y="350" />
            </Array>
          </mxGeometry>
        </mxCell>
        <mxCell id="6kmdfwkzF2_6ChwyTH_8-31" value="N" style="edgeLabel;html=1;align=center;verticalAlign=middle;resizable=0;points=[];" vertex="1" connectable="0" parent="6kmdfwkzF2_6ChwyTH_8-30">
          <mxGeometry x="-0.1653" y="2" relative="1" as="geometry">
            <mxPoint as="offset" />
          </mxGeometry>
        </mxCell>
        <mxCell id="77e6c97f196da883-16" value="是否推送会议邀请" style="rhombus;whiteSpace=wrap;html=1;rounded=0;shadow=0;labelBackgroundColor=none;strokeWidth=1;fontFamily=Verdana;fontSize=8;align=center;" parent="77e6c97f196da883-5" vertex="1">
          <mxGeometry x="30" y="148" width="140" height="60" as="geometry" />
        </mxCell>
        <mxCell id="77e6c97f196da883-17" value="循环给用户发送通知" style="rounded=1;whiteSpace=wrap;html=1;shadow=0;labelBackgroundColor=none;strokeWidth=1;fontFamily=Verdana;fontSize=8;align=center;" parent="77e6c97f196da883-5" vertex="1">
          <mxGeometry x="50" y="260" width="100" height="60" as="geometry" />
        </mxCell>
        <mxCell id="77e6c97f196da883-34" style="edgeStyle=orthogonalEdgeStyle;rounded=1;html=1;labelBackgroundColor=none;startArrow=none;startFill=0;startSize=5;endArrow=classicThin;endFill=1;endSize=5;jettySize=auto;orthogonalLoop=1;strokeColor=#000000;strokeWidth=1;fontFamily=Verdana;fontSize=8;fontColor=#000000;" parent="77e6c97f196da883-5" source="77e6c97f196da883-15" target="77e6c97f196da883-16" edge="1">
          <mxGeometry relative="1" as="geometry" />
        </mxCell>
        <mxCell id="77e6c97f196da883-35" style="edgeStyle=orthogonalEdgeStyle;rounded=1;html=1;labelBackgroundColor=none;startArrow=none;startFill=0;startSize=5;endArrow=classicThin;endFill=1;endSize=5;jettySize=auto;orthogonalLoop=1;strokeWidth=1;fontFamily=Verdana;fontSize=8" parent="77e6c97f196da883-5" source="77e6c97f196da883-16" target="77e6c97f196da883-17" edge="1">
          <mxGeometry relative="1" as="geometry" />
        </mxCell>
        <mxCell id="6kmdfwkzF2_6ChwyTH_8-17" value="是" style="edgeLabel;html=1;align=center;verticalAlign=middle;resizable=0;points=[];" vertex="1" connectable="0" parent="77e6c97f196da883-35">
          <mxGeometry x="0.0769" y="1" relative="1" as="geometry">
            <mxPoint as="offset" />
          </mxGeometry>
        </mxCell>
        <mxCell id="6kmdfwkzF2_6ChwyTH_8-27" value="Y" style="edgeStyle=orthogonalEdgeStyle;rounded=0;orthogonalLoop=1;jettySize=auto;html=1;entryX=0.5;entryY=0;entryDx=0;entryDy=0;" edge="1" parent="77e6c97f196da883-5" source="6kmdfwkzF2_6ChwyTH_8-20" target="6kmdfwkzF2_6ChwyTH_8-21">
          <mxGeometry relative="1" as="geometry" />
        </mxCell>
        <mxCell id="6kmdfwkzF2_6ChwyTH_8-28" style="edgeStyle=orthogonalEdgeStyle;rounded=0;orthogonalLoop=1;jettySize=auto;html=1;entryX=1;entryY=0.5;entryDx=0;entryDy=0;" edge="1" parent="77e6c97f196da883-5" source="6kmdfwkzF2_6ChwyTH_8-20" target="6kmdfwkzF2_6ChwyTH_8-25">
          <mxGeometry relative="1" as="geometry">
            <Array as="points">
              <mxPoint x="180" y="380" />
              <mxPoint x="180" y="580" />
            </Array>
          </mxGeometry>
        </mxCell>
        <mxCell id="6kmdfwkzF2_6ChwyTH_8-29" value="N" style="edgeLabel;html=1;align=center;verticalAlign=middle;resizable=0;points=[];" vertex="1" connectable="0" parent="6kmdfwkzF2_6ChwyTH_8-28">
          <mxGeometry x="-0.287" y="-3" relative="1" as="geometry">
            <mxPoint as="offset" />
          </mxGeometry>
        </mxCell>
        <mxCell id="6kmdfwkzF2_6ChwyTH_8-20" value="判定是否为重复会议" style="rhombus;whiteSpace=wrap;html=1;rounded=0;shadow=0;labelBackgroundColor=none;strokeWidth=1;fontFamily=Verdana;fontSize=8;align=center;" vertex="1" parent="77e6c97f196da883-5">
          <mxGeometry x="30" y="350" width="140" height="60" as="geometry" />
        </mxCell>
        <mxCell id="6kmdfwkzF2_6ChwyTH_8-26" value="" style="edgeStyle=orthogonalEdgeStyle;rounded=0;orthogonalLoop=1;jettySize=auto;html=1;" edge="1" parent="77e6c97f196da883-5" source="6kmdfwkzF2_6ChwyTH_8-21" target="6kmdfwkzF2_6ChwyTH_8-25">
          <mxGeometry relative="1" as="geometry" />
        </mxCell>
        <mxCell id="6kmdfwkzF2_6ChwyTH_8-21" value="生成重复会议的用户列表" style="rounded=1;whiteSpace=wrap;html=1;shadow=0;labelBackgroundColor=none;strokeWidth=1;fontFamily=Verdana;fontSize=8;align=center;" vertex="1" parent="77e6c97f196da883-5">
          <mxGeometry x="50" y="450" width="100" height="60" as="geometry" />
        </mxCell>
        <mxCell id="6kmdfwkzF2_6ChwyTH_8-25" value="分批插入数据库，限制每次插入300条记录" style="whiteSpace=wrap;html=1;fontSize=8;fontFamily=Verdana;rounded=1;shadow=0;labelBackgroundColor=none;strokeWidth=1;" vertex="1" parent="77e6c97f196da883-5">
          <mxGeometry x="40" y="550" width="120" height="60" as="geometry" />
        </mxCell>
        <mxCell id="6kmdfwkzF2_6ChwyTH_8-9" value="" style="edgeStyle=orthogonalEdgeStyle;rounded=0;orthogonalLoop=1;jettySize=auto;html=1;dashed=1;" edge="1" parent="77e6c97f196da883-1" source="6kmdfwkzF2_6ChwyTH_8-7" target="77e6c97f196da883-9">
          <mxGeometry relative="1" as="geometry" />
        </mxCell>
        <mxCell id="6kmdfwkzF2_6ChwyTH_8-10" style="edgeStyle=orthogonalEdgeStyle;rounded=0;orthogonalLoop=1;jettySize=auto;html=1;entryX=0;entryY=0.5;entryDx=0;entryDy=0;" edge="1" parent="77e6c97f196da883-1" source="6kmdfwkzF2_6ChwyTH_8-7" target="77e6c97f196da883-12">
          <mxGeometry relative="1" as="geometry" />
        </mxCell>
        <mxCell id="6kmdfwkzF2_6ChwyTH_8-16" style="edgeStyle=orthogonalEdgeStyle;rounded=0;orthogonalLoop=1;jettySize=auto;html=1;exitX=1;exitY=0.5;exitDx=0;exitDy=0;entryX=0;entryY=0.5;entryDx=0;entryDy=0;" edge="1" parent="77e6c97f196da883-1" source="77e6c97f196da883-12" target="77e6c97f196da883-15">
          <mxGeometry relative="1" as="geometry">
            <mxPoint x="770" y="520" as="sourcePoint" />
          </mxGeometry>
        </mxCell>
      </root>
    </mxGraphModel>
  </diagram>
</mxfile>
